<svg id="visual" viewBox="0 0 900 600" width="900" height="600" xmlns="http://www.w3.org/2000/svg" xmlns:xlink="http://www.w3.org/1999/xlink" version="1.1"><path d="M746 600L744.5 590.8C743 581.7 740 563.3 740 545.2C740 527 743 509 750.5 490.8C758 472.7 770 454.3 780.5 436.2C791 418 800 400 800 381.8C800 363.7 791 345.3 789.5 327.2C788 309 794 291 797 272.8C800 254.7 800 236.3 794 218.2C788 200 776 182 767 163.8C758 145.7 752 127.3 750.5 109.2C749 91 752 73 750.5 54.8C749 36.7 743 18.3 740 9.2L737 0L900 0L900 9.2C900 18.3 900 36.7 900 54.8C900 73 900 91 900 109.2C900 127.3 900 145.7 900 163.8C900 182 900 200 900 218.2C900 236.3 900 254.7 900 272.8C900 291 900 309 900 327.2C900 345.3 900 363.7 900 381.8C900 400 900 418 900 436.2C900 454.3 900 472.7 900 490.8C900 509 900 527 900 545.2C900 563.3 900 581.7 900 590.8L900 600Z" fill="#ffce66"></path><path d="M530 600L522.5 590.8C515 581.7 500 563.3 500 545.2C500 527 515 509 525.5 490.8C536 472.7 542 454.3 546.5 436.2C551 418 554 400 542 381.8C530 363.7 503 345.3 494 327.2C485 309 494 291 516.5 272.8C539 254.7 575 236.3 584 218.2C593 200 575 182 566 163.8C557 145.7 557 127.3 539 109.2C521 91 485 73 474.5 54.8C464 36.7 479 18.3 486.5 9.2L494 0L738 0L741 9.2C744 18.3 750 36.7 751.5 54.8C753 73 750 91 751.5 109.2C753 127.3 759 145.7 768 163.8C777 182 789 200 795 218.2C801 236.3 801 254.7 798 272.8C795 291 789 309 790.5 327.2C792 345.3 801 363.7 801 381.8C801 400 792 418 781.5 436.2C771 454.3 759 472.7 751.5 490.8C744 509 741 527 741 545.2C741 563.3 744 581.7 745.5 590.8L747 600Z" fill="#ffc241"></path><path d="M269 600L260 590.8C251 581.7 233 563.3 227 545.2C221 527 227 509 239 490.8C251 472.7 269 454.3 284 436.2C299 418 311 400 305 381.8C299 363.7 275 345.3 272 327.2C269 309 287 291 290 272.8C293 254.7 281 236.3 281 218.2C281 200 293 182 296 163.8C299 145.7 293 127.3 285.5 109.2C278 91 269 73 267.5 54.8C266 36.7 272 18.3 275 9.2L278 0L495 0L487.5 9.2C480 18.3 465 36.7 475.5 54.8C486 73 522 91 540 109.2C558 127.3 558 145.7 567 163.8C576 182 594 200 585 218.2C576 236.3 540 254.7 517.5 272.8C495 291 486 309 495 327.2C504 345.3 531 363.7 543 381.8C555 400 552 418 547.5 436.2C543 454.3 537 472.7 526.5 490.8C516 509 501 527 501 545.2C501 563.3 516 581.7 523.5 590.8L531 600Z" fill="#ffb600"></path><path d="M134 600L132.5 590.8C131 581.7 128 563.3 128 545.2C128 527 131 509 146 490.8C161 472.7 188 454.3 198.5 436.2C209 418 203 400 189.5 381.8C176 363.7 155 345.3 153.5 327.2C152 309 170 291 171.5 272.8C173 254.7 158 236.3 156.5 218.2C155 200 167 182 173 163.8C179 145.7 179 127.3 179 109.2C179 91 179 73 180.5 54.8C182 36.7 185 18.3 186.5 9.2L188 0L279 0L276 9.2C273 18.3 267 36.7 268.5 54.8C270 73 279 91 286.5 109.2C294 127.3 300 145.7 297 163.8C294 182 282 200 282 218.2C282 236.3 294 254.7 291 272.8C288 291 270 309 273 327.2C276 345.3 300 363.7 306 381.8C312 400 300 418 285 436.2C270 454.3 252 472.7 240 490.8C228 509 222 527 228 545.2C234 563.3 252 581.7 261 590.8L270 600Z" fill="#db9e02"></path><path d="M0 600L0 590.8C0 581.7 0 563.3 0 545.2C0 527 0 509 0 490.8C0 472.7 0 454.3 0 436.2C0 418 0 400 0 381.8C0 363.7 0 345.3 0 327.2C0 309 0 291 0 272.8C0 254.7 0 236.3 0 218.2C0 200 0 182 0 163.8C0 145.7 0 127.3 0 109.2C0 91 0 73 0 54.8C0 36.7 0 18.3 0 9.2L0 0L189 0L187.5 9.2C186 18.3 183 36.7 181.5 54.8C180 73 180 91 180 109.2C180 127.3 180 145.7 174 163.8C168 182 156 200 157.5 218.2C159 236.3 174 254.7 172.5 272.8C171 291 153 309 154.5 327.2C156 345.3 177 363.7 190.5 381.8C204 400 210 418 199.5 436.2C189 454.3 162 472.7 147 490.8C132 509 129 527 129 545.2C129 563.3 132 581.7 133.5 590.8L135 600Z" fill="#b98603"></path></svg>